<?xml version="1.0" encoding="UTF-8" standalone="no"?>
<!-- Created with Inkscape (http://www.inkscape.org/) -->

<svg
   xmlns:dc="http://purl.org/dc/elements/1.1/"
   xmlns:cc="http://creativecommons.org/ns#"
   xmlns:rdf="http://www.w3.org/1999/02/22-rdf-syntax-ns#"
   xmlns:svg="http://www.w3.org/2000/svg"
   xmlns="http://www.w3.org/2000/svg"
   xmlns:sodipodi="http://sodipodi.sourceforge.net/DTD/sodipodi-0.dtd"
   xmlns:inkscape="http://www.inkscape.org/namespaces/inkscape"
   width="210mm"
   height="297mm"
   id="svg2"
   version="1.1"
   inkscape:version="0.48.3.1 r9886"
   sodipodi:docname="vomov.svg">
  <defs
     id="defs4" />
  <sodipodi:namedview
     id="base"
     pagecolor="#ffffff"
     bordercolor="#666666"
     borderopacity="1.0"
     inkscape:pageopacity="0.0"
     inkscape:pageshadow="2"
     inkscape:zoom="0.98994949"
     inkscape:cx="-6.8952378"
     inkscape:cy="814.33708"
     inkscape:document-units="px"
     inkscape:current-layer="layer1"
     showgrid="false"
     inkscape:window-width="1419"
     inkscape:window-height="886"
     inkscape:window-x="192"
     inkscape:window-y="90"
     inkscape:window-maximized="0">
    <inkscape:grid
       type="xygrid"
       id="grid3791" />
  </sodipodi:namedview>
  <metadata
     id="metadata7">
    <rdf:RDF>
      <cc:Work
         rdf:about="">
        <dc:format>image/svg+xml</dc:format>
        <dc:type
           rdf:resource="http://purl.org/dc/dcmitype/StillImage" />
        <dc:title></dc:title>
      </cc:Work>
    </rdf:RDF>
  </metadata>
  <g
     inkscape:label="Calque 1"
     inkscape:groupmode="layer"
     id="layer1">
    <path
       sodipodi:type="arc"
       style="fill:#aea79f;fill-opacity:1;fill-rule:nonzero;stroke:none"
       id="path3753"
       sodipodi:cx="242.14285"
       sodipodi:cy="324.50504"
       sodipodi:rx="90.714287"
       sodipodi:ry="90.714287"
       d="m 332.85714,324.50504 a 90.714287,90.714287 0 1 1 -181.42857,0 90.714287,90.714287 0 1 1 181.42857,0 z"
       transform="matrix(1.3346457,0,0,1.3346457,-50.674913,-78.237061)" />
    <path
       style="opacity:0.1485944;fill:#00000f;fill-opacity:0.94117647;stroke:none"
       d="m 226.27417,398.79349 77.78175,72.98352 c 0,0 15.04037,-3.93982 30.94853,-13.15715 10.39883,-6.02518 20.96393,-15.3281 28.65047,-23.71342 8.64522,-9.43115 15.59574,-21.51316 20.24771,-32.60698 5.81156,-13.85918 8.14574,-26.16271 8.54163,-29.5174 0.68364,-5.79306 -85.51107,-67.01978 -85.51107,-67.01978 l 7.22425,39.9982 -64.39722,51.26524 z"
       id="path3970"
       inkscape:connector-curvature="0"
       sodipodi:nodetypes="ccsssscccc" />
    <path
       style="fill:#772953;fill-opacity:1"
       d="m 292.04962,407.24687 c -5.69358,-2.10154 -13.34347,-7.94466 -11.56251,-8.83164 0.29346,-0.14616 3.48883,-1.96271 7.10077,-4.03676 l 6.5672,-3.771 1.90414,5.30875 c 3.17546,8.85322 15.16067,11.7194 24.50053,5.85913 8.27531,-5.19231 8.87804,-6.94643 9.76773,-28.42601 0.73985,-17.86233 1.20633,-21.51335 4.16786,-24.47088 5.71713,-5.70945 11.36455,-7.03698 20.731,-7.61619 l 8.83448,-0.5463 1.73678,4.66418 c 2.45482,6.5925 2.56708,6.4733 -6.09607,6.4733 -6.05863,0 -9.42916,0.45946 -12.68139,2.70698 -4.90938,3.39274 -4.86664,5.24419 -5.95051,19.05468 -1.08909,13.87747 -5.59885,24.98949 -14.76217,31.00404 -11.50162,7.54934 -22.84655,6.83972 -34.25784,2.62772 z"
       id="path3968"
       inkscape:connector-curvature="0"
       sodipodi:nodetypes="scscssssscssssss" />
    <path
       sodipodi:type="arc"
       style="fill:#ffffff;fill-opacity:0.94117647;fill-rule:nonzero;stroke:none"
       id="path3753-8"
       sodipodi:cx="242.14285"
       sodipodi:cy="324.50504"
       sodipodi:rx="90.714287"
       sodipodi:ry="90.714287"
       d="m 332.85714,324.50504 a 90.714287,90.714287 0 1 1 -181.42857,0 90.714287,90.714287 0 1 1 181.42857,0 z"
       transform="matrix(0.70013594,0,0,0.70013594,85.645661,114.98597)" />
    <path
       sodipodi:type="arc"
       style="fill:#eeeeee;fill-opacity:1;fill-rule:nonzero;stroke:#dd4814;stroke-width:16.30102730000000122;stroke-linecap:round;stroke-linejoin:round;stroke-miterlimit:4;stroke-opacity:1;stroke-dasharray:none"
       id="path3753-8-6"
       sodipodi:cx="242.14285"
       sodipodi:cy="324.50504"
       sodipodi:rx="90.714287"
       sodipodi:ry="90.714287"
       d="m 332.85714,324.50504 a 90.714287,90.714287 0 1 1 -181.42857,0 90.714287,90.714287 0 1 1 181.42857,0 z"
       transform="matrix(0.10591656,0,0,0.10591656,229.27189,308.0187)" />
    <path
       sodipodi:type="arc"
       style="fill:#dd4814;fill-opacity:1;fill-rule:nonzero;stroke:none"
       id="path3753-8-6-0"
       sodipodi:cx="242.14285"
       sodipodi:cy="324.50504"
       sodipodi:rx="90.714287"
       sodipodi:ry="90.714287"
       d="m 332.85714,324.50504 a 90.714287,90.714287 0 1 1 -181.42857,0 90.714287,90.714287 0 1 1 181.42857,0 z"
       transform="matrix(0.17801426,0,0,0.17801426,185.34407,314.25933)" />
    <path
       sodipodi:type="arc"
       style="fill:#dd4814;fill-opacity:1;fill-rule:nonzero;stroke:none"
       id="path3753-8-6-0-0"
       sodipodi:cx="242.14285"
       sodipodi:cy="324.50504"
       sodipodi:rx="90.714287"
       sodipodi:ry="90.714287"
       d="m 332.85714,324.50504 a 90.714287,90.714287 0 1 1 -181.42857,0 90.714287,90.714287 0 1 1 181.42857,0 z"
       transform="matrix(0.17801426,0,0,0.17801426,171.82747,278.94174)" />
    <path
       sodipodi:type="arc"
       style="fill:#dd4814;fill-opacity:1;fill-rule:nonzero;stroke:none"
       id="path3753-8-6-0-0-3"
       sodipodi:cx="242.14285"
       sodipodi:cy="324.50504"
       sodipodi:rx="90.714287"
       sodipodi:ry="90.714287"
       d="m 332.85714,324.50504 a 90.714287,90.714287 0 1 1 -181.42857,0 90.714287,90.714287 0 1 1 181.42857,0 z"
       transform="matrix(0.17801426,0,0,0.17801426,196.24457,247.54835)" />
    <path
       sodipodi:type="arc"
       style="fill:#dd4814;fill-opacity:1;fill-rule:nonzero;stroke:none"
       id="path3753-8-6-0-0-3-6"
       sodipodi:cx="242.14285"
       sodipodi:cy="324.50504"
       sodipodi:rx="90.714287"
       sodipodi:ry="90.714287"
       d="m 332.85714,324.50504 a 90.714287,90.714287 0 1 1 -181.42857,0 90.714287,90.714287 0 1 1 181.42857,0 z"
       transform="matrix(0.17801426,0,0,0.17801426,237.81173,253.36193)" />
    <path
       sodipodi:type="arc"
       style="fill:#dd4814;fill-opacity:1;fill-rule:nonzero;stroke:none"
       id="path3753-8-6-0-0-3-6-4"
       sodipodi:cx="242.14285"
       sodipodi:cy="324.50504"
       sodipodi:rx="90.714287"
       sodipodi:ry="90.714287"
       d="m 332.85714,324.50504 a 90.714287,90.714287 0 1 1 -181.42857,0 90.714287,90.714287 0 1 1 181.42857,0 z"
       transform="matrix(0.17801426,0,0,0.17801426,251.76438,290.27826)" />
    <path
       sodipodi:type="arc"
       style="fill:#dd4814;fill-opacity:1;fill-rule:nonzero;stroke:none"
       id="path3753-8-6-0-0-3-6-4-2"
       sodipodi:cx="242.14285"
       sodipodi:cy="324.50504"
       sodipodi:rx="90.714287"
       sodipodi:ry="90.714287"
       d="m 332.85714,324.50504 a 90.714287,90.714287 0 1 1 -181.42857,0 90.714287,90.714287 0 1 1 181.42857,0 z"
       transform="matrix(0.17801426,0,0,0.17801426,226.47524,321.38098)" />
  </g>
</svg>
